<svg width="14" height="13" viewBox="0 0 14 13" fill="none" xmlns="http://www.w3.org/2000/svg">
<path d="M9.99967 0C12.025 0 13.6663 1.66667 13.6663 4C13.6663 8.66667 8.66634 11.3333 6.99967 12.3333C5.33301 11.3333 0.333008 8.66667 0.333008 4C0.333008 1.66667 1.99967 0 3.99967 0C5.23967 0 6.33301 0.666667 6.99967 1.33333C7.66634 0.666667 8.75968 0 9.99967 0ZM7.62234 10.4027C8.20967 10.032 8.73967 9.66333 9.23567 9.26867C11.223 7.68867 12.333 5.962 12.333 4C12.333 2.42667 11.3083 1.33333 9.99967 1.33333C9.28234 1.33333 8.50634 1.71333 7.94234 2.276L6.99967 3.21867L6.05701 2.276C5.49301 1.71333 4.71701 1.33333 3.99967 1.33333C2.70634 1.33333 1.66634 2.43733 1.66634 4C1.66634 5.96267 2.77701 7.68867 4.76301 9.26867C5.25968 9.66333 5.78967 10.032 6.37701 10.402C6.57634 10.528 6.77367 10.6487 6.99967 10.7833C7.22567 10.6487 7.42301 10.528 7.62234 10.4027Z" fill="#8A8A8A"/>
</svg>
