<svg width="14" height="14" viewBox="0 0 14 14" fill="none" xmlns="http://www.w3.org/2000/svg">
<path d="M10.333 2.99998H13.6663V4.33331H12.333V13C12.333 13.1768 12.2628 13.3464 12.1377 13.4714C12.0127 13.5964 11.8432 13.6666 11.6663 13.6666H2.33301C2.1562 13.6666 1.98663 13.5964 1.8616 13.4714C1.73658 13.3464 1.66634 13.1768 1.66634 13V4.33331H0.333008V2.99998H3.66634V0.99998C3.66634 0.823169 3.73658 0.653599 3.8616 0.528575C3.98663 0.403551 4.1562 0.333313 4.33301 0.333313H9.66634C9.84315 0.333313 10.0127 0.403551 10.1377 0.528575C10.2628 0.653599 10.333 0.823169 10.333 0.99998V2.99998ZM10.9997 4.33331H2.99967V12.3333H10.9997V4.33331ZM4.99967 1.66665V2.99998H8.99967V1.66665H4.99967Z" fill="#8A8A8A"/>
</svg>
