<svg width="46" height="46" viewBox="0 0 46 46" xmlns="http://www.w3.org/2000/svg">
<path d="M0 4C0 1.79086 1.79086 0 4 0H42C44.2091 0 46 1.79086 46 4V42C46 44.2091 44.2091 46 42 46H4C1.79086 46 0 44.2091 0 42V4Z" />
<path d="M18 19V17C18 15.6739 18.5268 14.4021 19.4645 13.4645C20.4021 12.5268 21.6739 12 23 12C24.3261 12 25.5979 12.5268 26.5355 13.4645C27.4732 14.4021 28 15.6739 28 17V19H31C31.2652 19 31.5196 19.1054 31.7071 19.2929C31.8946 19.4804 32 19.7348 32 20V32C32 32.2652 31.8946 32.5196 31.7071 32.7071C31.5196 32.8946 31.2652 33 31 33H15C14.7348 33 14.4804 32.8946 14.2929 32.7071C14.1054 32.5196 14 32.2652 14 32V20C14 19.7348 14.1054 19.4804 14.2929 19.2929C14.4804 19.1054 14.7348 19 15 19H18ZM18 21H16V31H30V21H28V23H26V21H20V23H18V21ZM20 19H26V17C26 16.2044 25.6839 15.4413 25.1213 14.8787C24.5587 14.3161 23.7956 14 23 14C22.2044 14 21.4413 14.3161 20.8787 14.8787C20.3161 15.4413 20 16.2044 20 17V19Z" fill="white"/>
</svg>
